Patient4_TMGait_0pt8_01_left_38_EMG.mot
version=1
nRows=30
nColumns=33
inDegrees=no
endheader
time	1LAddLong	2LGlutMax	3LGlutMed	4LIliopsoas	5LSemiMemb	6LBicFemLong	7LRecFem	8LVastMed	9LVastLat	10LGasMed	11LTibAnt	12lTibPost	13LPeroneusLong	14LSol	15LExtDigLong	16LFlexDigLong	17RAddLong	18RGlutMax	19RGlutMed	20RIliopsoas	21RSemiMemb	22RBicFemLong	23RRecFem	24RVastMed	25RVastLat	26RGasMed	27RTibAnt	28RTibPost	29RPeroneusLong	30RSol	31RExtDigLong	32RFlexDigLong
42.445	-0.018158	1.2494	-0.27557	0.000305	0.050049	0.077209	0.29037	0.005951	-0.18906	-0.13931	-0.034332	-0.030212	-0.019836	0.002747	-0.21347	0.14038	-0.08667	-0.4425	-0.76035	0.039978	-0.23178	0.054932	0.76401	0.019073	-0.053253	0.018463	0.32501	-0.006866	0.05661	-0.054626	-0.004272	-0.021057
42.446	-0.006866	1.2556	-0.22278	0.013123	0.022125	0.039368	0.26443	0.018921	-0.21591	-0.087891	0.0383	-0.04364	-0.042572	0.015259	-0.15182	0.11215	-0.10407	-0.31067	-0.61508	0.045471	-0.23224	0.070038	0.78186	-0.016937	-0.048828	0.013428	0.49957	-0.002136	-0.09079	0.058899	0.000916	-0.025024
42.447	0.00351	1.2593	-0.19577	-0.011292	-0.022888	0.017395	0.20065	0.014038	-0.20111	-0.064545	0.052948	-0.009308	-0.07431	0.018616	-0.078125	0.074158	-0.15945	-0.20599	-0.45822	0.015411	-0.26779	0.050659	0.79727	-0.019684	-0.035095	0.01236	0.21561	0.000153	-0.18509	0.12741	-0.00061	-0.02533
42.448	0.003662	1.2556	-0.1648	-0.010376	-0.12253	-0.1207	0.19058	0.013733	-0.18417	-0.077515	-0.076752	-0.010986	-0.019836	-0.017548	-0.086212	-1.1147	-0.18448	-0.10651	-0.29373	-0.046234	-0.27313	-0.024414	0.74875	-0.067596	-0.041656	0.00885	0.083771	0.000458	-0.18951	0.1062	-0.000153	-0.027161
42.449	0.029602	1.2535	-0.029144	-0.006714	-0.027161	-0.26794	0.25375	0.011902	-0.16769	-0.056915	-0.08728	-0.007782	-0.041046	-0.053101	-0.017548	0.14435	-0.1535	0.042877	-0.32608	-0.024872	-0.31845	-0.08728	0.78766	-0.090027	-0.039673	0.005188	-0.19012	-0.001526	-0.16724	0.071411	-0.003662	-0.027771
42.45	0.037537	1.2518	-0.059662	0.01358	0.11398	-0.2359	0.25589	0.007019	-0.20599	-0.062714	-0.003052	-0.000305	-0.11475	-0.12299	0.039673	0.83695	-0.064087	0.19608	-0.48843	0.016327	-0.32638	-0.13886	0.9285	-0.061951	-0.046082	0.009766	-0.25909	-0.002594	-0.060577	0.043793	-0.004272	-0.023499
42.451	0.035248	1.255	-0.089569	0.013123	0.055542	-0.34454	0.19714	-0.017242	-0.18585	-0.083466	0.016785	-0.00061	-0.12848	-0.10712	0.045776	-0.10346	-0.036621	0.24902	-0.88638	0.10422	-0.29114	-0.16586	1.0808	-0.081635	-0.071411	0.007629	-0.074615	0.001984	-0.10941	-0.010071	-0.002441	-0.022736
42.452	0.031891	1.2561	-0.11597	-0.003052	-0.002136	-0.23682	0.17059	-0.001678	-0.17425	-0.11108	0.023193	0.001984	-0.1268	-0.068665	0.084686	-0.16724	-0.076447	0.38711	-0.85251	0.15335	-0.23727	-0.15793	1.0323	-0.051117	-0.037994	0.009003	-0.094147	-0.000153	-0.093994	-0.05249	-0.006409	-0.024414
42.453	0.02243	1.2561	-0.10864	0.00885	-0.048523	-0.054626	0.19241	0.020599	-0.2507	-0.15091	0.046387	0.001068	-0.052032	-0.067139	0.016479	0.8548	-0.032349	0.50323	-0.90759	0.22766	-0.13779	-0.042267	1.0229	-0.011597	-0.024109	0.015717	0.12878	-0.002899	-0.054932	-0.083313	-0.006256	-0.023651
42.454	0.005493	1.2535	-0.15564	0.014191	-0.075226	0.12955	0.18692	0.0354	-0.42129	-0.13001	0.056305	-0.010681	0.049438	-0.11581	0.031586	0.073853	-0.014648	0.62546	-0.72586	0.20706	-0.13886	0.10559	1.0649	-0.007782	-0.045471	0.014191	0.21851	-0.000763	-0.060577	-0.097198	-0.004272	-0.022125
42.455	-0.002899	1.3667	0.055237	0.010223	-0.11734	0.24735	0.12711	0.019836	-0.33829	0.005341	0.048523	0.011597	0.055389	-0.090942	0.018616	-0.056	0.024872	0.75165	-0.63065	0.11322	-0.093994	0.17838	1.0913	-0.019989	-0.04776	0.015259	0.23758	0.003815	-0.1033	-0.065918	-0.003052	-0.024872
42.456	0.007172	1.2589	0.076904	0.014648	-0.089417	0.30365	0.030518	0.000763	-0.22034	0.12726	-0.018921	0.038147	0.033112	-0.061035	-0.077667	-0.029144	0.07019	0.85724	-0.54886	0.026703	-0.11261	0.1503	1.1513	-0.016327	-0.053864	0.009003	0.48935	0.000305	-0.13428	0.049286	-0.001221	-0.026703
42.457	0.017853	1.2082	0.099182	0.021362	0.012207	0.21683	-0.021362	0.003052	-0.38635	0.12421	-0.01236	-0.008087	0.02182	-0.1062	0.16861	-0.041962	0.022736	0.9343	0.059662	-0.16892	-0.16419	0.12207	1.1693	0.007172	-0.054169	0.010376	0.72128	0.000763	-0.17685	-0.00061	-0.000916	-0.028687
42.458	0.028687	1.0497	-0.001831	0.007935	0.068054	0.19073	-0.070496	-0.002747	-0.78598	0.034027	-0.030518	0.30136	0.087738	-0.020142	0.10498	-0.03067	-0.046844	1.0199	0.12268	-0.24719	-0.18845	0.10696	1.0933	0.10117	-0.046692	0.012207	0.92422	0.000305	-0.22354	-0.049438	-0.005341	-0.028992
42.459	0.018463	0.95078	-0.01358	-0.009918	0.070648	0.17563	-0.16007	-0.001526	-0.78934	-0.063324	-0.017395	-0.045471	0.074158	0.22797	-0.014343	0.002594	-0.024719	1.0962	-0.64636	-0.25146	-0.18738	0.16998	0.93277	0.044861	-0.060883	0.016632	0.69885	0.000763	-0.11337	-0.036621	-0.005493	-0.028229
42.46	0.021057	0.90378	0.036163	-0.02655	0.05127	0.13687	-0.15976	-0.005646	-0.56747	0.006866	-0.003662	0.024872	0.016632	0.36163	-0.12024	0.003815	-0.005951	1.142	-0.90424	-0.2092	-0.21179	0.18433	0.73608	0.028534	-0.092621	0.012512	-0.73013	-0.000305	-0.027161	-0.070343	-0.006561	-0.025024
42.461	0.018005	0.74234	0.053253	-0.029907	0.006409	0.036774	-0.10651	-0.021973	-0.37827	-0.10178	0.028687	0.058594	-0.003662	0.24658	-0.093384	-0.027466	0.019073	1.2318	-0.97229	-0.11841	-0.21835	0.1445	0.78491	0.03952	-0.079193	0.01297	-0.85342	-0.000305	-0.088348	-0.058136	-0.008545	-0.026398
42.462	0.021973	0.72403	0.07019	-0.005188	0.000763	-0.32577	-0.14725	-0.024109	-0.24033	-0.076752	0.032501	-0.007782	-0.023804	-0.045929	-0.038452	-0.049286	0.035706	1.3463	-0.94681	-0.071411	-0.22644	0.11887	0.97458	0.14297	-0.088806	0.012512	-0.65903	0.006866	0.001373	-0.097504	-0.005798	-0.026398
42.463	0.015106	0.63248	0.002441	0.016022	-0.02533	-0.26443	-0.13016	-0.00412	-0.23712	-0.027008	0.02594	0.082092	-0.035248	-0.31708	-0.041809	-0.06424	0.085602	1.4575	-1.0933	-0.081177	-0.24384	0.041809	1.1421	0.10834	-0.089722	0.015106	-0.47379	-0.00061	0.08667	-0.10712	-0.005188	-0.02121
42.464	0.027924	0.53375	0.010223	0.011292	-0.061646	-0.069733	-0.19928	0.011444	-0.15564	-0.031891	0.019989	0.051117	-0.032806	-0.18982	-0.05188	-0.033264	0.062103	1.544	-1.0696	-0.046844	-0.23727	0.041199	1.3589	0.12329	-0.080261	0.016632	-0.13199	0.000458	0.089722	-0.11719	-0.001221	-0.036316
42.465	0.018005	0.47699	0.021973	0.013123	-0.10696	0.009918	-0.26215	0.010376	-0.21347	-0.035095	0.014801	0.049744	0.011902	-0.009308	-0.045776	-0.028381	0.028534	1.5897	-1.0318	0.088959	-0.25391	0.043335	1.4462	0.059662	-0.071716	0.009308	0.20584	0.000305	-0.025177	-0.099487	-0.003662	-0.024719
42.466	0.010834	0.45822	0.058289	0.012207	-0.14481	-0.003204	-0.23621	0.007782	-0.20065	-0.007477	0.019073	0.072479	0.007019	0.19333	0.30411	-0.033417	0.066986	1.6058	-1.0669	0.15305	-0.29755	0.018463	1.4505	-0.004425	-0.051727	0.015717	0.20126	-0.001984	-0.12665	-0.1506	-0.007782	-0.015717
42.467	0.008087	0.38498	0.21316	0.012665	-0.11383	0.011749	-0.19943	-0.002136	-0.1178	0.030823	0.006714	0.063324	0.005798	0.26688	-0.061646	-0.037384	0.042725	1.7503	-0.7486	0.15045	-0.32654	0.015411	1.718	0.039673	-0.045776	0.010681	0.21957	-0.009918	-0.14603	-0.24399	-0.004272	-0.018463
42.468	0.002594	0.29282	0.23834	-0.002594	-0.029907	0.10254	-0.16129	-0.006561	-0.04303	0.056152	-0.004578	0.066833	-0.019836	0.11459	0.31204	-0.008545	-0.049438	1.8266	-0.38742	0.052338	-0.31769	0.054626	1.777	0.13367	0.007324	0.012665	0.13748	-0.008698	-0.1799	-0.22232	-0.006714	-0.016632
42.469	0.048676	0.15152	0.11749	0.000153	-0.056763	0.19775	-0.12817	-0.004272	-0.012054	0.036469	0.061493	0.067596	-0.027313	0.041962	0.11215	-0.026855	-0.11185	1.7673	-0.6424	-0.070801	-0.29633	0.000305	1.4816	0.089722	-0.00946	0.005798	0.21225	-0.006256	-0.2301	-0.17242	-0.010529	-0.01297
42.47	0.053864	0.006256	0.017853	-0.012512	-0.069885	0.22827	-0.21347	-0.002594	-0.006561	0.02121	-0.045929	0.056458	-0.014496	0.02182	-0.12039	-0.031433	-0.14572	1.7029	-0.7428	-0.075531	-0.27603	0.000763	1.0788	0.06546	-0.018311	0.005493	0.53833	-0.007629	-0.18036	-0.17716	-0.007324	-0.013123
42.471	-0.00946	-0.10223	0.080414	-0.004883	0.067902	0.30838	-0.28336	0.001678	-0.010223	0.014496	-0.15533	0.047607	0.006104	0.021667	0.10986	-0.016174	-0.13123	1.624	-0.56747	-0.066681	-0.31403	0.060577	0.79544	-0.002899	-0.004578	0.009766	0.080872	-0.004425	-0.034485	-0.090332	-0.001678	-0.019836
42.472	0.035248	-0.2507	0.096588	0.012817	0.095367	0.22995	-0.37094	0.009155	0.071259	-0.016327	-0.23941	0.036621	0.03418	0.10132	-0.15686	-0.02182	-0.048218	1.5134	-0.42801	-0.057526	-0.32028	0.091858	0.49988	-0.13489	-0.005341	0.006714	-0.32593	-0.009918	-0.008392	-0.010529	-0.004272	-0.022125
42.473	0.022583	-0.37582	0.12955	0.00351	0.016479	0.15778	-0.36591	0.028534	0.13641	0.005188	-0.063629	0.040588	0.043182	0.10757	0.005341	-0.022736	0.050354	1.4781	-0.96466	0.10956	-0.32547	0.1297	0.439	-0.16235	-0.020294	0.001831	0.008698	-0.008698	0.000763	-0.033875	-0.00473	-0.019684
42.474	0.011597	-0.45853	0.10223	0.016785	-0.068054	0.19516	-0.40726	0.009766	0.21515	0.034332	0.19455	0.019379	-0.014648	0.092316	0.64987	-0.020905	-0.029755	1.5305	-1.2991	0.13306	-0.35934	0.095673	0.19547	-0.24857	-0.028381	0.003052	0.33829	-0.006866	0.055695	-0.05188	-0.004425	-0.027161
